<svg id="Layer_1" data-name="Layer 1" xmlns="http://www.w3.org/2000/svg" viewBox="0 0 2075 211"><title>logomark.black.full</title><path d="M1383,97.12h37.63v72.2a107.47,107.47,0,0,1-33.56,16.78,130.41,130.41,0,0,1-38.39,5.85q-27.7,0-49.82-11.82a88,88,0,0,1-34.71-32.8q-12.58-21-12.58-47.41t12.58-47.41a87.64,87.64,0,0,1,35-32.8q22.37-11.81,50.33-11.82,23.4,0,42.47,7.88a84.28,84.28,0,0,1,32,22.89l-26.44,24.4Q1378.42,43,1351.47,43q-17,0-30.25,7.11a51.18,51.18,0,0,0-20.6,20.09q-7.36,13-7.37,29.74a58.66,58.66,0,0,0,7.37,29.49,52.21,52.21,0,0,0,20.46,20.21q13.11,7.25,29.89,7.24a66.72,66.72,0,0,0,32-7.62Z"/><path d="M1478.46,170.85q-21.23-21.09-21.23-60.25V10.94h41.19v98.14q0,47.79,39.65,47.79,19.33,0,29.5-11.57t10.16-36.22V10.94h40.68V110.6q0,39.15-21.23,60.25T1537.82,192Q1499.69,192,1478.46,170.85Z"/><path d="M1659.09,10.94h41.19v178h-41.19Z"/><path d="M1742.48,10.94h41.19v144.4h89.23V188.9H1742.48Z"/><path d="M1896,10.94h80.85q29,0,51.23,11.05a82.88,82.88,0,0,1,34.58,31.15Q2075,73.23,2075,99.92t-12.33,46.78q-12.34,20.08-34.58,31.14t-51.23,11.06H1896Zm78.81,144.15q26.69,0,42.58-14.87t15.89-40.29q0-25.42-15.89-40.29t-42.58-14.87h-37.62V155.09Z"/><path d="M113.39,188.9,79.07,139.33H41.19V188.9H0v-178H77q23.64,0,41.06,7.88t26.82,22.37q9.41,14.49,9.41,34.32t-9.53,34.19q-9.53,14.36-27.08,22l39.92,57.2ZM103,52.51q-9.66-8-28.22-8H41.19v62H74.75q18.55,0,28.22-8.13t9.66-22.88Q112.62,60.51,103,52.51Z"/><path d="M223.08,180a88.68,88.68,0,0,1-34.83-32.92q-12.59-21-12.58-47.16t12.58-47.16a88.73,88.73,0,0,1,34.83-32.92q22.24-12,50-11.95t49.83,11.95A89.92,89.92,0,0,1,357.7,52.76q12.71,21,12.71,47.16T357.7,147.08A89.87,89.87,0,0,1,322.87,180Q300.75,192,273,192T223.08,180Zm78.43-30.38a52,52,0,0,0,20-20.21q7.24-13,7.25-29.49t-7.25-29.49a52,52,0,0,0-20-20.21,59.59,59.59,0,0,0-56.95,0,52,52,0,0,0-20,20.21q-7.24,13-7.25,29.49t7.25,29.49a51.92,51.92,0,0,0,20,20.21,59.59,59.59,0,0,0,56.95,0Z"/><path d="M401.42,10.94h41.19v144.4h89.24V188.9H401.42Z"/><path d="M555,10.94h41.19v144.4h89.24V188.9H555Z"/><path d="M731.41,22.64v76h94.82v11.7H731.41V188.9h-13v-178h119v11.7Z"/><path d="M1213.17,188.9l-42.46-59.49a128.88,128.88,0,0,1-17.28,1.27h-50.85V188.9h-13v-178h63.81q33.55,0,52.62,15.89t19.07,44.11q0,21.1-10.8,35.46t-30.89,20.21l44.49,62.29Zm-59.74-69.66q28.46,0,43.47-12.58t15-35.72q0-23.14-15-35.73t-43.47-12.58h-50.85v96.6Z"/><path d="M1071.29,67.48,994.51.08,876,16.46l-24,117,67.07,77.61L1014,193.15l26.55-4.75.07-.28.79-.15Zm-53.39-31.9L981.28,13.27,991,11.93Zm-21.7,88.91L972.78,21.27l81.06,49.41Zm58.07-38.82-21.38,86.76-32-37Zm-69.11,41-105-29.27L961,20.33Zm-3,10.84-58.25,57-43.71-85.4ZM939.43,195l53.17-52,31.72,36.69L1012,182.07Zm-54-168.52L947.17,18,872.63,89.09Zm-17.22,84,30.72,60L864.18,130.3Z"/></svg>