<svg id="Layer_1" data-name="Layer 1" xmlns="http://www.w3.org/2000/svg" viewBox="0 0 746 212"><defs><style>.cls-1{fill:#fff;}</style></defs><title>logomark.white.short</title><path class="cls-1" d="M374.71,196.62l-41.5-58.37a132.23,132.23,0,0,1-14.53.78H269.92v57.59h-19.2V15h68q34.76,0,54.47,16.61T392.87,77.3q0,21.26-10.77,35.92t-30.74,21.14l44.35,62.26Zm-15.3-85.86q14.26-11.92,14.27-33.46,0-22.05-14.27-33.85t-41.24-11.8H269.92v91h48.25Q345.14,122.69,359.41,110.75Z"/><path class="cls-1" d="M457.46,33.89V103h93.9v16.6h-93.9v77h-19.2V17.28H562.77V33.89Z"/><path class="cls-1" d="M728,102.67h18.43v69.26a88.67,88.67,0,0,1-30.1,17.12,111.78,111.78,0,0,1-36.57,6q-27.25,0-49-11.93A88.06,88.06,0,0,1,596.5,150Q584,128.87,584,102.67T596.5,55.33a88.06,88.06,0,0,1,34.23-33.07Q652.54,10.32,680,10.32a106.35,106.35,0,0,1,38.13,6.61,75.83,75.83,0,0,1,29.31,19.59L735.52,48.72Q714,27.45,680.79,27.45q-22,0-39.82,9.73a71.64,71.64,0,0,0-27.88,27A74.82,74.82,0,0,0,603,102.67a74.1,74.1,0,0,0,10.11,38.39,73.05,73.05,0,0,0,27.77,27q17.62,9.87,39.69,9.86,28,0,47.45-14Z"/><path class="cls-1" d="M219.44,67.62,142.42,0,23.59,16.44-.48,133.8,66.8,211.65l95.17-18,26.63-4.76.07-.29.8-.15Zm-53.56-32L129.16,13.24l9.7-1.34ZM144.11,124.8,120.63,21.26l81.31,49.56Zm58.25-38.94-21.45,87-32.05-37.07ZM133,127,27.76,97.66l81.08-77.35Zm-3,10.87L71.57,195,27.73,109.38ZM87.18,195.57l53.33-52.15,31.82,36.8-12.38,2.34ZM33,26.53,94.94,18,20.17,89.29ZM15.77,110.79,46.58,171,11.7,130.63Z"/></svg>