<svg id="Layer_1" data-name="Layer 1" xmlns="http://www.w3.org/2000/svg" viewBox="0 0 219 211"><title>logomark.black.die</title><path d="M219.42,67.19l-77-67.61L23.57,16-.49,133.38l67.27,77.85,95.17-18,26.63-4.76.07-.29.8-.15Zm-53.56-32L129.14,12.81l9.7-1.34ZM144.1,124.38,120.61,20.83l81.31,49.56Zm58.25-38.94-21.45,87-32.05-37.07ZM133,126.6,27.74,97.24l81.08-77.35Zm-3,10.87L71.56,194.61,27.71,109ZM87.16,195.14,140.49,143l31.82,36.8-12.38,2.34ZM33,26.1l61.9-8.56L20.16,88.87ZM15.75,110.37l30.81,60.2L11.69,130.2Z"/></svg>